<svg width="16" height="16" viewBox="0 0 16 16" fill="none" xmlns="http://www.w3.org/2000/svg">
<path d="M6.5 6.5V5.1001C6.5 4.54005 6.5 4.25981 6.60899 4.0459C6.70487 3.85774 6.85774 3.70487 7.0459 3.60899C7.25981 3.5 7.54004 3.5 8.1001 3.5H10.9001C11.4602 3.5 11.74 3.5 11.9539 3.60899C12.1421 3.70487 12.2952 3.85774 12.3911 4.0459C12.5001 4.25981 12.5001 4.53984 12.5001 5.09989V7.8999C12.5001 8.45996 12.5001 8.73998 12.3911 8.95389C12.2952 9.14205 12.142 9.29524 11.9538 9.39111C11.7401 9.5 11.4605 9.5 10.9015 9.5H9.5M9.5 9.5L9.5 8.09847C9.5 7.5395 9.5 7.2596 9.39111 7.0459C9.29524 6.85774 9.1421 6.70487 8.95394 6.60899C8.74003 6.5 8.46015 6.5 7.9001 6.5H6.5H5.1001C4.54005 6.5 4.25981 6.5 4.0459 6.60899C3.85774 6.70487 3.70487 6.85774 3.60899 7.0459C3.5 7.25981 3.5 7.54005 3.5 8.1001V10.9001C3.5 11.4601 3.5 11.74 3.60899 11.9539C3.70487 12.1421 3.85774 12.2952 4.0459 12.3911C4.2596 12.5 4.5395 12.5 5.09845 12.5H7.90178C8.46073 12.5 8.74024 12.5 8.95394 12.3911C9.1421 12.2952 9.29524 12.142 9.39111 11.9538C9.5 11.7401 9.5 11.4605 9.5 10.9015V9.5Z" stroke="white" stroke-linecap="round" stroke-linejoin="round"/>
</svg>
